<svg xmlns="http://www.w3.org/2000/svg" xmlns:xlink="http://www.w3.org/1999/xlink" fill="none" version="1.1" width="283.64654541015625" height="340" viewBox="0 0 283.64654541015625 340"><g style="mix-blend-mode:passthrough"><g style="mix-blend-mode:passthrough"><g style="mix-blend-mode:passthrough" transform="matrix(1,0.1227845624089241,-0.4452286958694458,1,24.48757827281952,-6.0958293533008145)"><path d="M83.64654541015625,171L92.24034541015625,171L92.24034541015625,151L102.03714541015626,151L102.03714541015626,143.7031L92.24034541015625,143.7031L92.24034541015625,98L82.14654541015625,98L51.64654541015625,145L51.64654541015625,151L83.64654541015625,151L83.64654541015625,171ZM83.64654541015625,143.7031L61.14654541015625,143.7031L77.83404541015625,118.7812C79.94344541015624,115.1875,81.94344541015624,111.5,83.74034541015625,108.0156L84.14654541015625,108.0156C83.94344541015624,111.7031,83.64654541015625,117.6875,83.64654541015625,121.2656L83.64654541015625,143.7031Z" fill="#3D3D3D" fill-opacity="1"/></g><g style="mix-blend-mode:passthrough" transform="matrix(1,0.1227845624089241,-0.4452286958694458,1,67.67476177215576,-27.951481462089305)"><path d="M261.64654541015625,268L270.24034541015624,268L270.24034541015624,248L280.03714541015626,248L280.03714541015626,240.7031L270.24034541015624,240.7031L270.24034541015624,195L260.14654541015625,195L229.64654541015625,242L229.64654541015625,248L261.64654541015625,248L261.64654541015625,268ZM261.64654541015625,240.7031L239.14654541015625,240.7031L255.83404541015625,215.7812C257.94344541015624,212.1875,259.94344541015624,208.5,261.74034541015624,205.0156L262.14654541015625,205.0156C261.94344541015624,208.7031,261.64654541015625,214.6875,261.64654541015625,218.2656L261.64654541015625,240.7031Z" fill="#3D3D3D" fill-opacity="1"/></g><g style="mix-blend-mode:passthrough" transform="matrix(1,0.1227845624089241,-0.4452286958694458,1,57.43450176715851,-13.1587473235615)"><g style="mix-blend-mode:passthrough"><g style="opacity:0.10000000149011612;mix-blend-mode:passthrough"><ellipse cx="157.16939544677734" cy="179" rx="50" ry="50" fill="#7A52E0" fill-opacity="0.800000011920929"/></g><g style="opacity:0.16428571939468384;mix-blend-mode:passthrough"><ellipse cx="157.16939187049866" cy="179.0000035762787" rx="46.79486846923828" ry="46.75325012207031" fill="#7A52E0" fill-opacity="0.800000011920929"/></g><g style="opacity:0.22857142984867096;mix-blend-mode:passthrough"><ellipse cx="157.16939210891724" cy="179.0000033378601" rx="43.58974075317383" ry="43.50649642944336" fill="#7A52E0" fill-opacity="0.800000011920929"/></g><g style="opacity:0.2928571403026581;mix-blend-mode:passthrough"><ellipse cx="157.16939735412598" cy="178.99999904632568" rx="40.38461685180664" ry="40.25973892211914" fill="#7A52E0" fill-opacity="0.800000011920929"/></g><g style="opacity:0.3571428656578064;mix-blend-mode:passthrough"><ellipse cx="157.16938877105713" cy="179.00000667572021" rx="37.179481506347656" ry="37.01299285888672" fill="#7A52E0" fill-opacity="0.800000011920929"/></g><g style="opacity:0.4214285612106323;mix-blend-mode:passthrough"><ellipse cx="157.16938972473145" cy="179.00000381469727" rx="33.9743537902832" ry="33.7662353515625" fill="#7A52E0" fill-opacity="0.800000011920929"/></g><g style="opacity:0.48571428656578064;mix-blend-mode:passthrough"><ellipse cx="157.1693935394287" cy="179.00000381469727" rx="30.769227981567383" ry="30.51948356628418" fill="#7A52E0" fill-opacity="0.800000011920929"/></g><g style="opacity:0.550000011920929;mix-blend-mode:passthrough"><ellipse cx="157.16939163208008" cy="179.00000381469727" rx="27.56410026550293" ry="27.272729873657227" fill="#7A52E0" fill-opacity="0.800000011920929"/></g><g style="opacity:0.6142857074737549;mix-blend-mode:passthrough"><ellipse cx="157.1693935394287" cy="179.00000381469727" rx="24.35897445678711" ry="24.025976181030273" fill="#7A52E0" fill-opacity="0.800000011920929"/></g><g style="opacity:0.6785714030265808;mix-blend-mode:passthrough"><ellipse cx="157.16939163208008" cy="179.00000381469727" rx="21.153844833374023" ry="20.779224395751953" fill="#7A52E0" fill-opacity="0.800000011920929"/></g><g style="opacity:0.7428571581840515;mix-blend-mode:passthrough"><ellipse cx="157.1693935394287" cy="179.0000057220459" rx="17.94871711730957" ry="17.532468795776367" fill="#7A52E0" fill-opacity="0.800000011920929"/></g><g style="opacity:0.8071428537368774;mix-blend-mode:passthrough"><ellipse cx="157.16939067840576" cy="179.00000190734863" rx="14.743590354919434" ry="14.285715103149414" fill="#7A52E0" fill-opacity="0.800000011920929"/></g><g style="opacity:0.8714285492897034;mix-blend-mode:passthrough"><ellipse cx="157.16939640045166" cy="179.00000190734863" rx="11.538460731506348" ry="11.038961410522461" fill="#7A52E0" fill-opacity="0.800000011920929"/></g><g style="opacity:0.9357143044471741;mix-blend-mode:passthrough"><ellipse cx="157.16938877105713" cy="179.00000667572021" rx="8.333333015441895" ry="7.792208671569824" fill="#7A52E0" fill-opacity="0.800000011920929"/></g><g style="mix-blend-mode:passthrough"><ellipse cx="157.1693925857544" cy="179.00000286102295" rx="5.128205299377441" ry="4.545454978942871" fill="#7A52E0" fill-opacity="0.800000011920929"/></g></g><g style="mix-blend-mode:passthrough"><g style="mix-blend-mode:passthrough" transform="matrix(1,-1.6272245773052418e-9,0,1,0,2.392223166225449e-7)"><path d="M150.6452840600586,193.1078872680664L153.9499740600586,193.1078872680664L153.9499740600586,181.1078872680664L164.0397740600586,181.1078872680664L164.0397740600586,178.3070872680664L153.9499740600586,178.3070872680664L153.9499740600586,169.6703872680664L165.8327740600586,169.6703872680664L165.8327740600586,166.8578872680664L150.6452840600586,166.8578872680664L150.6452840600586,193.1078872680664Z" fill="#FFFFFF" fill-opacity="1"/></g></g></g></g><g style="mix-blend-mode:passthrough"><g style="mix-blend-mode:passthrough"><ellipse cx="99.23748779296875" cy="24.5" rx="24" ry="24" fill-opacity="0" stroke-opacity="1" stroke="#000000" fill="none" stroke-width="1"/></g><g style="mix-blend-mode:passthrough"><path d="M75.00255541015625,22.424Q74.31343541015625,22.8547,73.52051541015625,24.4062Q72.62492141015625,26.1587,72.29802541015626,28.1212Q71.91698041015626,30.4088,72.47858841015625,32.2327Q73.13039541015625,34.349599999999995,75.01153541015626,35.5817Q79.15793541015626,38.2976,84.68994541015626,39.44Q89.82274541015624,40.5,97.73754541015626,40.5Q101.39784541015625,40.5,105.83114541015625,39.2796Q110.04974541015625,38.1184,114.16464541015625,36.0831Q118.25094541015625,34.0619,121.29864541015624,31.6435Q124.45024541015624,29.1425,125.80244541015625,26.7537Q127.08424541015626,24.4892,126.88954541015624,21.5289Q126.71404541015625,18.85873,125.40864541015625,16.18833Q124.18204541015625,13.67925,122.42954541015625,12.07594Q120.70694541015625,10.5,119.23754541015626,10.5L119.23754541015626,9.5Q121.09534541015626,9.5,123.10454541015625,11.33812Q124.99714541015625,13.06956,126.30704541015625,15.74917Q127.69894541015626,18.59655,127.88744541015626,21.4633Q128.10164541015627,24.7218,126.67274541015625,27.2463Q125.22454541015625,29.8047,121.92014541015625,32.4268Q118.78944541015625,34.911100000000005,114.60794541015625,36.9794Q110.40734541015625,39.0571,106.09654541015625,40.2438Q101.53294541015624,41.5,97.73754541015626,41.5Q89.72054541015625,41.5,84.48774541015625,40.419399999999996Q78.76926541015625,39.2384,74.46361541015625,36.4183Q72.28080441015625,34.9885,71.52286841015625,32.527Q70.89177541015626,30.4774,71.31161541015625,27.9569Q71.66396621015625,25.8416,72.63005641015624,23.9512Q73.54886541015625,22.1533,74.47254541015624,21.576L75.00255541015625,22.424Z" fill="#000000" fill-opacity="1"/></g></g><g style="mix-blend-mode:passthrough"><g style="mix-blend-mode:passthrough"><ellipse cx="193.23748779296875" cy="315.5" rx="24" ry="24" fill-opacity="0" stroke-opacity="1" stroke="#000000" fill="none" stroke-width="1"/></g><g style="mix-blend-mode:passthrough"><path d="M169.00255541015625,313.424Q168.31343541015625,313.8547,167.52051541015624,315.4062Q166.62492141015625,317.1587,166.29802541015624,319.1212Q165.91698041015624,321.4088,166.47858841015625,323.2327Q167.13039541015624,325.3496,169.01153541015626,326.5817Q173.15793541015626,329.2976,178.68994541015624,330.44Q183.82274541015624,331.5,191.73754541015626,331.5Q195.39784541015626,331.5,199.83114541015624,330.2796Q204.04974541015625,329.1184,208.16464541015625,327.0831Q212.25094541015625,325.0619,215.29864541015624,322.6435Q218.45024541015624,320.1425,219.80244541015625,317.7537Q221.08424541015626,315.4892,220.88954541015624,312.5289Q220.71404541015625,309.85873,219.40864541015625,307.18833Q218.18204541015626,304.67925,216.42954541015627,303.07594Q214.70694541015627,301.5,213.23754541015626,301.5L213.23754541015626,300.5Q215.09534541015626,300.5,217.10454541015625,302.33812Q218.99714541015624,304.06956,220.30704541015626,306.74917Q221.69894541015626,309.59655,221.88744541015626,312.4633Q222.10164541015627,315.7218,220.67274541015627,318.2463Q219.22454541015625,320.8047,215.92014541015624,323.4268Q212.78944541015625,325.9111,208.60794541015625,327.9794Q204.40734541015627,330.0571,200.09654541015624,331.2438Q195.53294541015626,332.5,191.73754541015626,332.5Q183.72054541015626,332.5,178.48774541015626,331.4194Q172.76926541015624,330.2384,168.46361541015625,327.4183Q166.28080441015624,325.9885,165.52286841015626,323.527Q164.89177541015624,321.4774,165.31161541015624,318.9569Q165.66396621015625,316.84159999999997,166.63005641015624,314.9512Q167.54886541015625,313.1533,168.47254541015624,312.576L169.00255541015625,313.424Z" fill="#000000" fill-opacity="1"/></g></g><g style="mix-blend-mode:passthrough"><g style="mix-blend-mode:passthrough" transform="matrix(0.8450095653533936,-0.5347511768341064,0.6271047592163086,0.7789349555969238,-138.7495741314051,133.57511379718198)"><path d="M156.28194541015625,262.0736454199219C156.28194541015625,263.66869541992185,156.28194541015625,266.2693454199219,156.28194541015625,268.0994054199219Q156.28184541015625,270.9350054199219,156.28184541015625,270.9350054199219C154.17594541015626,270.9350054199219,155.57974541015625,270.9350054199219,154.87794541015626,270.9350054199219C154.55854541015626,270.9350054199219,152.77202541015626,270.9350054199219,152.07006541015625,270.9350054199219Q152.07006541015625,270.5427054199219,152.07006541015625,269.87170541992185C152.07006541015625,269.1628054199219,152.07006541015625,268.0598054199219,152.07006541015625,267.0360054199219C152.07006541015625,266.01228541992185,152.07006541015625,265.0678154199219,152.07006541015625,264.55483541992186Q152.07006541015625,264.2889954199219,152.07006541015625,263.84592541992185C151.36810541015626,263.84592541992185,152.70030541015626,263.8532054199219,152.07006541015625,263.84592541992185C151.18847541015626,263.8357354199219,149.96418541015626,263.84592541992185,149.26222541015625,263.84592541992185Q147.85830541015625,263.84592541992185,147.85830541015625,263.84592541992185C147.85830541015625,265.26374541992186,147.85830541015625,264.9092854199219,147.85830541015625,265.6182054199219C147.85830541015625,267.26180541992187,147.85830541015625,269.34000541992185,147.85830541015625,270.22610541992185C147.85830541015625,270.5806054199219,147.85830541015625,270.5806054199219,147.85830541015625,270.9350054199219Q147.85830541015625,270.9350054199219,147.15634541015626,270.9350054199219C146.75951541015624,270.9350054199219,146.27889541015625,270.9350054199219,145.75242541015626,270.9350054199219C144.77735541015625,270.9350054199219,143.96154341015625,270.9350054199219,143.64655192414625,270.9350054199219C143.64652734305625,268.0994054199219,143.64658024985624,266.96770541992186,143.64658024985624,262.0736454199219C143.64658024985624,260.85013541992186,143.94072141015624,260.2491854199219,144.34850541015626,259.59245541992186C144.75628541015624,258.93571541992185,145.27771541015625,258.2232054199219,145.75242541015626,257.8201754199219C146.70184541015624,257.0141014199219,147.44425541015625,256.7568054199219,149.96418541015626,256.7568054199219C151.22415541015624,256.7568054199219,152.15275541015626,256.94617841992186,152.77202541015626,257.1112614199219C153.39129541015626,257.2763444199219,153.70124541015625,257.41713741992186,154.17594541015626,257.8201754199219C154.65064541015624,258.2232054199219,155.17204541015624,258.93571541992185,155.57984541015625,259.59245541992186C155.98764541015626,260.2491854199219,156.28194541015625,260.85013541992186,156.28194541015625,262.0736454199219Z" fill="#7A52E0" fill-opacity="0.6000000238418579"/></g><g style="mix-blend-mode:passthrough" transform="matrix(0.8450095653533936,-0.5347511768341064,-0.6271047592163086,-0.7789349555969238,202.25725290820992,589.3425638069311)"><path d="M176.60494345703125,287.31684C176.60494345703125,288.91188999999997,176.60494345703125,291.51254,176.60494345703125,293.3426Q176.60484345703125,296.1782,176.60484345703125,296.1782C174.49894345703126,296.1782,175.90274345703125,296.1782,175.20094345703126,296.1782C174.88154345703126,296.1782,173.09502345703126,296.1782,172.39306345703125,296.1782Q172.39306345703125,295.7859,172.39306345703125,295.1149C172.39306345703125,294.406,172.39306345703125,293.303,172.39306345703125,292.2792C172.39306345703125,291.25548,172.39306345703125,290.31101,172.39306345703125,289.79803Q172.39306345703125,289.53219,172.39306345703125,289.08912C171.69110345703126,289.08912,173.02330345703126,289.0964,172.39306345703125,289.08912C171.51147345703126,289.07893,170.28718345703126,289.08912,169.58522345703125,289.08912Q168.18130345703125,289.08912,168.18130345703125,289.08912C168.18130345703125,290.50694,168.18130345703125,290.15248,168.18130345703125,290.8614C168.18130345703125,292.505,168.18130345703125,294.5832,168.18130345703125,295.4693C168.18130345703125,295.8238,168.18130345703125,295.8238,168.18130345703125,296.1782Q168.18130345703125,296.1782,167.47934345703126,296.1782C167.08251345703124,296.1782,166.60189345703125,296.1782,166.07542345703126,296.1782C165.10035345703125,296.1782,164.28454145703125,296.1782,163.96954997102125,296.1782C163.96952538993125,293.3426,163.96957829673124,292.2109,163.96957829673124,287.31684C163.96957829673124,286.09333,164.26371945703124,285.49238,164.67150345703126,284.83565C165.07928345703124,284.17891,165.60071345703125,283.4664,166.07542345703126,283.06337C167.02484345703124,282.257296,167.76725345703125,282,170.28718345703126,282C171.54715345703124,282,172.47575345703126,282.189373,173.09502345703126,282.354456C173.71429345703126,282.519539,174.02424345703125,282.660332,174.49894345703126,283.06337C174.97364345703124,283.4664,175.49504345703124,284.17891,175.90284345703125,284.83565C176.31064345703126,285.49238,176.60494345703125,286.09333,176.60494345703125,287.31684Z" fill="#7A52E0" fill-opacity="0.6000000238418579"/></g><g style="mix-blend-mode:passthrough" transform="matrix(0.9816279411315918,0.19080916047096252,-0.19080916047096252,0.9816279411315918,56.662536693998845,-24.46392147703773)"><rect x="155.36383056640625" y="282" width="4" height="9" rx="2" fill="#7A52E0" fill-opacity="0.6000000238418579"/></g><g style="mix-blend-mode:passthrough" transform="matrix(0.9135461449623108,0.40673699975013733,-0.40673699975013733,0.9135461449623108,116.75377846875563,-49.28371971222259)"><rect x="174.30718994140625" y="250" width="4" height="9" rx="2" fill="#7A52E0" fill-opacity="0.6000000238418579"/></g></g><g style="mix-blend-mode:passthrough"><g style="mix-blend-mode:passthrough" transform="matrix(0.8450095653533936,-0.5347511768341064,0.6271047592163086,0.7789349555969238,-30.034030146038276,72.2649147748889)"><path d="M117.28194541015625,79.07364541992187C117.28194541015625,80.66869541992187,117.28194541015625,83.26934541992188,117.28194541015625,85.09940541992188Q117.28184541015625,87.93500541992188,117.28184541015625,87.93500541992188C115.17594541015625,87.93500541992188,116.57974541015625,87.93500541992188,115.87794541015626,87.93500541992188C115.55854541015626,87.93500541992188,113.77202541015625,87.93500541992188,113.07006541015625,87.93500541992188Q113.07006541015625,87.54270541992187,113.07006541015625,86.87170541992188C113.07006541015625,86.16280541992188,113.07006541015625,85.05980541992187,113.07006541015625,84.03600541992188C113.07006541015625,83.01228541992188,113.07006541015625,82.06781541992187,113.07006541015625,81.55483541992187Q113.07006541015625,81.28899541992187,113.07006541015625,80.84592541992187C112.36810541015625,80.84592541992187,113.70030541015625,80.85320541992188,113.07006541015625,80.84592541992187C112.18847541015624,80.83573541992187,110.96418541015625,80.84592541992187,110.26222541015625,80.84592541992187Q108.85830541015625,80.84592541992187,108.85830541015625,80.84592541992187C108.85830541015625,82.26374541992188,108.85830541015625,81.90928541992187,108.85830541015625,82.61820541992188C108.85830541015625,84.26180541992187,108.85830541015625,86.34000541992188,108.85830541015625,87.22610541992188C108.85830541015625,87.58060541992188,108.85830541015625,87.58060541992188,108.85830541015625,87.93500541992188Q108.85830541015625,87.93500541992188,108.15634541015625,87.93500541992188C107.75951541015625,87.93500541992188,107.27889541015625,87.93500541992188,106.75242541015625,87.93500541992188C105.77735541015625,87.93500541992188,104.96154341015625,87.93500541992188,104.64655192414625,87.93500541992188C104.64652734305625,85.09940541992188,104.64658024985626,83.96770541992187,104.64658024985626,79.07364541992187C104.64658024985626,77.85013541992187,104.94072141015624,77.24918541992187,105.34850541015625,76.59245541992188C105.75628541015625,75.93571541992188,106.27771541015625,75.22320541992187,106.75242541015625,74.82017541992188C107.70184541015625,74.01410141992187,108.44425541015625,73.75680541992188,110.96418541015625,73.75680541992188C112.22415541015624,73.75680541992188,113.15275541015625,73.94617841992188,113.77202541015625,74.11126141992187C114.39129541015625,74.27634441992187,114.70124541015625,74.41713741992187,115.17594541015625,74.82017541992188C115.65064541015624,75.22320541992187,116.17204541015624,75.93571541992188,116.57984541015625,76.59245541992188C116.98764541015625,77.24918541992187,117.28194541015625,77.85013541992187,117.28194541015625,79.07364541992187Z" fill="#7A52E0" fill-opacity="0.6000000238418579"/></g><g style="mix-blend-mode:passthrough" transform="matrix(0.8450095653533936,-0.5347511768341064,-0.6271047592163086,-0.7789349555969238,81.4524550204078,242.94217103616393)"><path d="M137.60494345703125,104.31684C137.60494345703125,105.91189,137.60494345703125,108.51254,137.60494345703125,110.3426Q137.60484345703125,113.1782,137.60484345703125,113.1782C135.49894345703126,113.1782,136.90274345703125,113.1782,136.20094345703126,113.1782C135.88154345703126,113.1782,134.09502345703126,113.1782,133.39306345703125,113.1782Q133.39306345703125,112.7859,133.39306345703125,112.1149C133.39306345703125,111.406,133.39306345703125,110.303,133.39306345703125,109.2792C133.39306345703125,108.25548,133.39306345703125,107.31101,133.39306345703125,106.79803Q133.39306345703125,106.53219,133.39306345703125,106.08912C132.69110345703126,106.08912,134.02330345703126,106.0964,133.39306345703125,106.08912C132.51147345703126,106.07893,131.28718345703126,106.08912,130.58522345703125,106.08912Q129.18130345703125,106.08912,129.18130345703125,106.08912C129.18130345703125,107.50694,129.18130345703125,107.15248,129.18130345703125,107.8614C129.18130345703125,109.505,129.18130345703125,111.5832,129.18130345703125,112.4693C129.18130345703125,112.8238,129.18130345703125,112.8238,129.18130345703125,113.1782Q129.18130345703125,113.1782,128.47934345703126,113.1782C128.08251345703124,113.1782,127.60189345703125,113.1782,127.07542345703125,113.1782C126.10035345703125,113.1782,125.28454145703125,113.1782,124.96954997102125,113.1782C124.96952538993125,110.3426,124.96957829673126,109.2109,124.96957829673126,104.31684C124.96957829673126,103.09333,125.26371945703124,102.49238,125.67150345703125,101.83565C126.07928345703125,101.17891,126.60071345703125,100.4664,127.07542345703125,100.06337C128.02484345703124,99.257296,128.76725345703125,99,131.28718345703126,99C132.54715345703124,99,133.47575345703126,99.189373,134.09502345703126,99.354456C134.71429345703126,99.519539,135.02424345703125,99.660332,135.49894345703126,100.06337C135.97364345703124,100.4664,136.49504345703124,101.17891,136.90284345703125,101.83565C137.31064345703126,102.49238,137.60494345703125,103.09333,137.60494345703125,104.31684Z" fill="#7A52E0" fill-opacity="0.6000000238418579"/></g><g style="mix-blend-mode:passthrough" transform="matrix(0.7193408608436584,0.6946595311164856,-0.6946595311164856,0.7193408608436584,102.33340310158428,-54.939162956851305)"><rect x="119.156005859375" y="99.1725845336914" width="4" height="9" rx="2" fill="#7A52E0" fill-opacity="0.6000000238418579"/></g><g style="mix-blend-mode:passthrough" transform="matrix(0.9961958527565002,0.08715584874153137,-0.08715584874153137,0.9961958527565002,6.371359147142584,-11.397141528820157)"><rect x="133.70343017578125" y="67.26721954345703" width="4" height="9" rx="2" fill="#7A52E0" fill-opacity="0.6000000238418579"/></g></g></g></svg>